<mxfile host="app.diagrams.net" agent="Mozilla/5.0 (Windows NT 10.0; Win64; x64) AppleWebKit/537.36 (KHTML, like Gecko) Chrome/130.0.0.0 Safari/537.36" version="24.8.3">
  <diagram id="R2lEEEUBdFMjLlhIrx00" name="Page-1">
    <mxGraphModel dx="2250" dy="759" grid="1" gridSize="10" guides="1" tooltips="1" connect="1" arrows="1" fold="1" page="1" pageScale="1" pageWidth="850" pageHeight="1100" math="0" shadow="0" extFonts="Permanent Marker^https://fonts.googleapis.com/css?family=Permanent+Marker">
      <root>
        <mxCell id="0" />
        <mxCell id="1" parent="0" />
        <mxCell id="t4BZCT0nfX7v_ElxTXO8-1" value="" style="rounded=0;whiteSpace=wrap;html=1;fontFamily=Architects Daughter;fontSource=https%3A%2F%2Ffonts.googleapis.com%2Fcss%3Ffamily%3DArchitects%2BDaughter;" vertex="1" parent="1">
          <mxGeometry x="84" y="99" width="396" height="60" as="geometry" />
        </mxCell>
        <mxCell id="t4BZCT0nfX7v_ElxTXO8-2" value="" style="endArrow=none;html=1;rounded=0;fontFamily=Architects Daughter;fontSource=https%3A%2F%2Ffonts.googleapis.com%2Fcss%3Ffamily%3DArchitects%2BDaughter;" edge="1" parent="1">
          <mxGeometry width="50" height="50" relative="1" as="geometry">
            <mxPoint x="144" y="159" as="sourcePoint" />
            <mxPoint x="144" y="99" as="targetPoint" />
          </mxGeometry>
        </mxCell>
        <mxCell id="t4BZCT0nfX7v_ElxTXO8-3" value="&lt;font style=&quot;font-size: 18px;&quot;&gt;&lt;b style=&quot;font-size: 18px;&quot;&gt;Musician&lt;/b&gt;&lt;/font&gt;" style="text;html=1;align=center;verticalAlign=middle;resizable=0;points=[];autosize=1;strokeColor=none;fillColor=none;fontFamily=Architects Daughter;fontSource=https%3A%2F%2Ffonts.googleapis.com%2Fcss%3Ffamily%3DArchitects%2BDaughter;fontSize=18;" vertex="1" parent="1">
          <mxGeometry x="75" y="60" width="90" height="40" as="geometry" />
        </mxCell>
        <mxCell id="t4BZCT0nfX7v_ElxTXO8-4" value="&lt;font style=&quot;font-size: 17px;&quot;&gt;&lt;b&gt;id&lt;/b&gt;&lt;/font&gt;" style="text;html=1;align=center;verticalAlign=middle;resizable=0;points=[];autosize=1;strokeColor=none;fillColor=none;fontStyle=4;fontFamily=Architects Daughter;fontSource=https%3A%2F%2Ffonts.googleapis.com%2Fcss%3Ffamily%3DArchitects%2BDaughter;" vertex="1" parent="1">
          <mxGeometry x="99" y="114" width="30" height="30" as="geometry" />
        </mxCell>
        <mxCell id="t4BZCT0nfX7v_ElxTXO8-5" value="&lt;font style=&quot;font-size: 17px;&quot;&gt;&lt;b&gt;City&lt;/b&gt;&lt;/font&gt;" style="text;html=1;align=center;verticalAlign=middle;resizable=0;points=[];autosize=1;strokeColor=none;fillColor=none;fontFamily=Architects Daughter;fontSource=https%3A%2F%2Ffonts.googleapis.com%2Fcss%3Ffamily%3DArchitects%2BDaughter;" vertex="1" parent="1">
          <mxGeometry x="159" y="114" width="50" height="30" as="geometry" />
        </mxCell>
        <mxCell id="t4BZCT0nfX7v_ElxTXO8-6" value="" style="endArrow=none;html=1;rounded=0;fontFamily=Architects Daughter;fontSource=https%3A%2F%2Ffonts.googleapis.com%2Fcss%3Ffamily%3DArchitects%2BDaughter;" edge="1" parent="1">
          <mxGeometry width="50" height="50" relative="1" as="geometry">
            <mxPoint x="225" y="159" as="sourcePoint" />
            <mxPoint x="225" y="99" as="targetPoint" />
          </mxGeometry>
        </mxCell>
        <mxCell id="t4BZCT0nfX7v_ElxTXO8-7" value="&lt;font style=&quot;font-size: 17px;&quot;&gt;&lt;b&gt;Street&lt;/b&gt;&lt;/font&gt;" style="text;html=1;align=center;verticalAlign=middle;resizable=0;points=[];autosize=1;strokeColor=none;fillColor=none;fontFamily=Architects Daughter;fontSource=https%3A%2F%2Ffonts.googleapis.com%2Fcss%3Ffamily%3DArchitects%2BDaughter;" vertex="1" parent="1">
          <mxGeometry x="220" y="114" width="80" height="30" as="geometry" />
        </mxCell>
        <mxCell id="t4BZCT0nfX7v_ElxTXO8-9" value="&lt;span style=&quot;font-size: 17px;&quot;&gt;&lt;b&gt;Name&lt;/b&gt;&lt;/span&gt;" style="text;html=1;align=center;verticalAlign=middle;resizable=0;points=[];autosize=1;strokeColor=none;fillColor=none;fontFamily=Architects Daughter;fontSource=https%3A%2F%2Ffonts.googleapis.com%2Fcss%3Ffamily%3DArchitects%2BDaughter;" vertex="1" parent="1">
          <mxGeometry x="295" y="115" width="70" height="30" as="geometry" />
        </mxCell>
        <mxCell id="t4BZCT0nfX7v_ElxTXO8-10" value="" style="endArrow=none;html=1;rounded=0;fontFamily=Architects Daughter;fontSource=https%3A%2F%2Ffonts.googleapis.com%2Fcss%3Ffamily%3DArchitects%2BDaughter;" edge="1" parent="1">
          <mxGeometry width="50" height="50" relative="1" as="geometry">
            <mxPoint x="292" y="159" as="sourcePoint" />
            <mxPoint x="292" y="99" as="targetPoint" />
          </mxGeometry>
        </mxCell>
        <mxCell id="t4BZCT0nfX7v_ElxTXO8-11" value="" style="endArrow=none;dashed=1;html=1;dashPattern=1 3;strokeWidth=2;rounded=0;entryX=0.919;entryY=0.949;entryDx=0;entryDy=0;entryPerimeter=0;" edge="1" parent="1">
          <mxGeometry width="50" height="50" relative="1" as="geometry">
            <mxPoint x="497.09000000000003" y="143" as="sourcePoint" />
            <mxPoint x="497.09000000000003" y="143" as="targetPoint" />
          </mxGeometry>
        </mxCell>
        <mxCell id="t4BZCT0nfX7v_ElxTXO8-12" value="" style="endArrow=none;html=1;rounded=0;fontFamily=Architects Daughter;fontSource=https%3A%2F%2Ffonts.googleapis.com%2Fcss%3Ffamily%3DArchitects%2BDaughter;" edge="1" parent="1">
          <mxGeometry width="50" height="50" relative="1" as="geometry">
            <mxPoint x="369" y="159" as="sourcePoint" />
            <mxPoint x="369" y="99" as="targetPoint" />
          </mxGeometry>
        </mxCell>
        <mxCell id="t4BZCT0nfX7v_ElxTXO8-14" value="&lt;span style=&quot;font-size: 17px;&quot;&gt;&lt;b&gt;Ph_Number&lt;/b&gt;&lt;/span&gt;" style="text;html=1;align=center;verticalAlign=middle;resizable=0;points=[];autosize=1;strokeColor=none;fillColor=none;fontFamily=Architects Daughter;fontSource=https%3A%2F%2Ffonts.googleapis.com%2Fcss%3Ffamily%3DArchitects%2BDaughter;" vertex="1" parent="1">
          <mxGeometry x="363" y="115" width="120" height="30" as="geometry" />
        </mxCell>
        <mxCell id="t4BZCT0nfX7v_ElxTXO8-58" style="edgeStyle=orthogonalEdgeStyle;rounded=0;orthogonalLoop=1;jettySize=auto;html=1;exitX=0.835;exitY=0.967;exitDx=0;exitDy=0;entryX=0;entryY=0.5;entryDx=0;entryDy=0;exitPerimeter=0;" edge="1" parent="1" source="t4BZCT0nfX7v_ElxTXO8-21" target="t4BZCT0nfX7v_ElxTXO8-1">
          <mxGeometry relative="1" as="geometry">
            <Array as="points">
              <mxPoint x="365" y="290" />
              <mxPoint x="365" y="290" />
              <mxPoint x="365" y="300" />
              <mxPoint x="64" y="300" />
              <mxPoint x="64" y="129" />
            </Array>
          </mxGeometry>
        </mxCell>
        <mxCell id="t4BZCT0nfX7v_ElxTXO8-21" value="" style="rounded=0;whiteSpace=wrap;html=1;fontFamily=Architects Daughter;fontSource=https%3A%2F%2Ffonts.googleapis.com%2Fcss%3Ffamily%3DArchitects%2BDaughter;" vertex="1" parent="1">
          <mxGeometry x="84" y="219" width="336" height="60" as="geometry" />
        </mxCell>
        <mxCell id="t4BZCT0nfX7v_ElxTXO8-22" value="" style="endArrow=none;html=1;rounded=0;fontFamily=Architects Daughter;fontSource=https%3A%2F%2Ffonts.googleapis.com%2Fcss%3Ffamily%3DArchitects%2BDaughter;" edge="1" parent="1">
          <mxGeometry width="50" height="50" relative="1" as="geometry">
            <mxPoint x="144" y="279" as="sourcePoint" />
            <mxPoint x="144" y="219" as="targetPoint" />
          </mxGeometry>
        </mxCell>
        <mxCell id="t4BZCT0nfX7v_ElxTXO8-23" value="&lt;font style=&quot;font-size: 18px;&quot;&gt;&lt;b style=&quot;font-size: 18px;&quot;&gt;Album&lt;/b&gt;&lt;/font&gt;" style="text;html=1;align=center;verticalAlign=middle;resizable=0;points=[];autosize=1;strokeColor=none;fillColor=none;fontFamily=Architects Daughter;fontSource=https%3A%2F%2Ffonts.googleapis.com%2Fcss%3Ffamily%3DArchitects%2BDaughter;fontSize=18;" vertex="1" parent="1">
          <mxGeometry x="78" y="180" width="70" height="40" as="geometry" />
        </mxCell>
        <mxCell id="t4BZCT0nfX7v_ElxTXO8-24" value="&lt;font style=&quot;font-size: 17px;&quot;&gt;&lt;b&gt;id&lt;/b&gt;&lt;/font&gt;" style="text;html=1;align=center;verticalAlign=middle;resizable=0;points=[];autosize=1;strokeColor=none;fillColor=none;fontStyle=4;fontFamily=Architects Daughter;fontSource=https%3A%2F%2Ffonts.googleapis.com%2Fcss%3Ffamily%3DArchitects%2BDaughter;" vertex="1" parent="1">
          <mxGeometry x="99" y="234" width="30" height="30" as="geometry" />
        </mxCell>
        <mxCell id="t4BZCT0nfX7v_ElxTXO8-25" value="&lt;font style=&quot;font-size: 17px;&quot;&gt;&lt;b&gt;Title&lt;/b&gt;&lt;/font&gt;" style="text;html=1;align=center;verticalAlign=middle;resizable=0;points=[];autosize=1;strokeColor=none;fillColor=none;fontFamily=Architects Daughter;fontSource=https%3A%2F%2Ffonts.googleapis.com%2Fcss%3Ffamily%3DArchitects%2BDaughter;" vertex="1" parent="1">
          <mxGeometry x="154" y="234" width="60" height="30" as="geometry" />
        </mxCell>
        <mxCell id="t4BZCT0nfX7v_ElxTXO8-26" value="" style="endArrow=none;html=1;rounded=0;fontFamily=Architects Daughter;fontSource=https%3A%2F%2Ffonts.googleapis.com%2Fcss%3Ffamily%3DArchitects%2BDaughter;" edge="1" parent="1">
          <mxGeometry width="50" height="50" relative="1" as="geometry">
            <mxPoint x="225" y="279" as="sourcePoint" />
            <mxPoint x="225" y="219" as="targetPoint" />
          </mxGeometry>
        </mxCell>
        <mxCell id="t4BZCT0nfX7v_ElxTXO8-27" value="&lt;font style=&quot;font-size: 17px;&quot;&gt;&lt;b&gt;Date&lt;/b&gt;&lt;/font&gt;" style="text;html=1;align=center;verticalAlign=middle;resizable=0;points=[];autosize=1;strokeColor=none;fillColor=none;fontFamily=Architects Daughter;fontSource=https%3A%2F%2Ffonts.googleapis.com%2Fcss%3Ffamily%3DArchitects%2BDaughter;" vertex="1" parent="1">
          <mxGeometry x="230" y="234" width="60" height="30" as="geometry" />
        </mxCell>
        <mxCell id="t4BZCT0nfX7v_ElxTXO8-30" value="" style="endArrow=none;dashed=1;html=1;dashPattern=1 3;strokeWidth=2;rounded=0;entryX=0.919;entryY=0.949;entryDx=0;entryDy=0;entryPerimeter=0;" edge="1" parent="1">
          <mxGeometry width="50" height="50" relative="1" as="geometry">
            <mxPoint x="497.09000000000003" y="263" as="sourcePoint" />
            <mxPoint x="497.09000000000003" y="263" as="targetPoint" />
          </mxGeometry>
        </mxCell>
        <mxCell id="t4BZCT0nfX7v_ElxTXO8-33" value="" style="rounded=0;whiteSpace=wrap;html=1;fontFamily=Architects Daughter;fontSource=https%3A%2F%2Ffonts.googleapis.com%2Fcss%3Ffamily%3DArchitects%2BDaughter;" vertex="1" parent="1">
          <mxGeometry x="84" y="349" width="126" height="60" as="geometry" />
        </mxCell>
        <mxCell id="t4BZCT0nfX7v_ElxTXO8-34" value="" style="endArrow=none;html=1;rounded=0;fontFamily=Architects Daughter;fontSource=https%3A%2F%2Ffonts.googleapis.com%2Fcss%3Ffamily%3DArchitects%2BDaughter;" edge="1" parent="1">
          <mxGeometry width="50" height="50" relative="1" as="geometry">
            <mxPoint x="144" y="409" as="sourcePoint" />
            <mxPoint x="144" y="349" as="targetPoint" />
          </mxGeometry>
        </mxCell>
        <mxCell id="t4BZCT0nfX7v_ElxTXO8-35" value="&lt;b&gt;Instrument&lt;/b&gt;" style="text;html=1;align=center;verticalAlign=middle;resizable=0;points=[];autosize=1;strokeColor=none;fillColor=none;fontFamily=Architects Daughter;fontSource=https%3A%2F%2Ffonts.googleapis.com%2Fcss%3Ffamily%3DArchitects%2BDaughter;fontSize=18;" vertex="1" parent="1">
          <mxGeometry x="78" y="310" width="110" height="40" as="geometry" />
        </mxCell>
        <mxCell id="t4BZCT0nfX7v_ElxTXO8-36" value="&lt;font style=&quot;font-size: 17px;&quot;&gt;&lt;b&gt;Name&lt;/b&gt;&lt;/font&gt;" style="text;html=1;align=center;verticalAlign=middle;resizable=0;points=[];autosize=1;strokeColor=none;fillColor=none;fontStyle=4;fontFamily=Architects Daughter;fontSource=https%3A%2F%2Ffonts.googleapis.com%2Fcss%3Ffamily%3DArchitects%2BDaughter;" vertex="1" parent="1">
          <mxGeometry x="79" y="364" width="70" height="30" as="geometry" />
        </mxCell>
        <mxCell id="t4BZCT0nfX7v_ElxTXO8-37" value="&lt;font style=&quot;font-size: 17px;&quot;&gt;&lt;b&gt;Key&lt;/b&gt;&lt;/font&gt;" style="text;html=1;align=center;verticalAlign=middle;resizable=0;points=[];autosize=1;strokeColor=none;fillColor=none;fontFamily=Architects Daughter;fontSource=https%3A%2F%2Ffonts.googleapis.com%2Fcss%3Ffamily%3DArchitects%2BDaughter;" vertex="1" parent="1">
          <mxGeometry x="153" y="364" width="50" height="30" as="geometry" />
        </mxCell>
        <mxCell id="t4BZCT0nfX7v_ElxTXO8-40" value="" style="rounded=0;whiteSpace=wrap;html=1;fontFamily=Architects Daughter;fontSource=https%3A%2F%2Ffonts.googleapis.com%2Fcss%3Ffamily%3DArchitects%2BDaughter;" vertex="1" parent="1">
          <mxGeometry x="84" y="460" width="126" height="60" as="geometry" />
        </mxCell>
        <mxCell id="t4BZCT0nfX7v_ElxTXO8-41" value="" style="endArrow=none;html=1;rounded=0;fontFamily=Architects Daughter;fontSource=https%3A%2F%2Ffonts.googleapis.com%2Fcss%3Ffamily%3DArchitects%2BDaughter;" edge="1" parent="1">
          <mxGeometry width="50" height="50" relative="1" as="geometry">
            <mxPoint x="144" y="520" as="sourcePoint" />
            <mxPoint x="144" y="460" as="targetPoint" />
          </mxGeometry>
        </mxCell>
        <mxCell id="t4BZCT0nfX7v_ElxTXO8-42" value="&lt;b&gt;Song&lt;/b&gt;" style="text;html=1;align=center;verticalAlign=middle;resizable=0;points=[];autosize=1;strokeColor=none;fillColor=none;fontFamily=Architects Daughter;fontSource=https%3A%2F%2Ffonts.googleapis.com%2Fcss%3Ffamily%3DArchitects%2BDaughter;fontSize=18;" vertex="1" parent="1">
          <mxGeometry x="79" y="421" width="60" height="40" as="geometry" />
        </mxCell>
        <mxCell id="t4BZCT0nfX7v_ElxTXO8-43" value="&lt;font style=&quot;font-size: 17px;&quot;&gt;&lt;b&gt;Title&lt;/b&gt;&lt;/font&gt;" style="text;html=1;align=center;verticalAlign=middle;resizable=0;points=[];autosize=1;strokeColor=none;fillColor=none;fontStyle=4;fontFamily=Architects Daughter;fontSource=https%3A%2F%2Ffonts.googleapis.com%2Fcss%3Ffamily%3DArchitects%2BDaughter;" vertex="1" parent="1">
          <mxGeometry x="84" y="475" width="60" height="30" as="geometry" />
        </mxCell>
        <mxCell id="t4BZCT0nfX7v_ElxTXO8-44" value="&lt;font style=&quot;font-size: 17px;&quot;&gt;&lt;b&gt;Author&lt;/b&gt;&lt;/font&gt;" style="text;html=1;align=center;verticalAlign=middle;resizable=0;points=[];autosize=1;strokeColor=none;fillColor=none;fontFamily=Architects Daughter;fontSource=https%3A%2F%2Ffonts.googleapis.com%2Fcss%3Ffamily%3DArchitects%2BDaughter;" vertex="1" parent="1">
          <mxGeometry x="138" y="475" width="80" height="30" as="geometry" />
        </mxCell>
        <mxCell id="t4BZCT0nfX7v_ElxTXO8-45" value="" style="endArrow=none;html=1;rounded=0;fontFamily=Architects Daughter;fontSource=https%3A%2F%2Ffonts.googleapis.com%2Fcss%3Ffamily%3DArchitects%2BDaughter;" edge="1" parent="1">
          <mxGeometry width="50" height="50" relative="1" as="geometry">
            <mxPoint x="292" y="279" as="sourcePoint" />
            <mxPoint x="292" y="219" as="targetPoint" />
          </mxGeometry>
        </mxCell>
        <mxCell id="t4BZCT0nfX7v_ElxTXO8-47" value="&lt;font style=&quot;font-size: 17px;&quot;&gt;&lt;b&gt;Musician_id&lt;/b&gt;&lt;/font&gt;" style="text;html=1;align=center;verticalAlign=middle;resizable=0;points=[];autosize=1;strokeColor=none;fillColor=none;fontFamily=Architects Daughter;fontSource=https%3A%2F%2Ffonts.googleapis.com%2Fcss%3Ffamily%3DArchitects%2BDaughter;" vertex="1" parent="1">
          <mxGeometry x="300" y="234" width="110" height="30" as="geometry" />
        </mxCell>
        <mxCell id="t4BZCT0nfX7v_ElxTXO8-48" value="" style="endArrow=none;dashed=1;html=1;dashPattern=1 3;strokeWidth=2;rounded=0;entryX=0.964;entryY=1.001;entryDx=0;entryDy=0;entryPerimeter=0;" edge="1" parent="1">
          <mxGeometry width="50" height="50" relative="1" as="geometry">
            <mxPoint x="310" y="262" as="sourcePoint" />
            <mxPoint x="406.03999999999996" y="262.03" as="targetPoint" />
          </mxGeometry>
        </mxCell>
        <mxCell id="t4BZCT0nfX7v_ElxTXO8-56" style="edgeStyle=orthogonalEdgeStyle;rounded=0;orthogonalLoop=1;jettySize=auto;html=1;exitX=0.25;exitY=1;exitDx=0;exitDy=0;entryX=0;entryY=0.5;entryDx=0;entryDy=0;" edge="1" parent="1" source="t4BZCT0nfX7v_ElxTXO8-49" target="t4BZCT0nfX7v_ElxTXO8-40">
          <mxGeometry relative="1" as="geometry" />
        </mxCell>
        <mxCell id="t4BZCT0nfX7v_ElxTXO8-57" style="edgeStyle=orthogonalEdgeStyle;rounded=0;orthogonalLoop=1;jettySize=auto;html=1;exitX=0.75;exitY=1;exitDx=0;exitDy=0;entryX=0;entryY=0.5;entryDx=0;entryDy=0;" edge="1" parent="1" source="t4BZCT0nfX7v_ElxTXO8-49" target="t4BZCT0nfX7v_ElxTXO8-21">
          <mxGeometry relative="1" as="geometry">
            <Array as="points">
              <mxPoint x="216" y="670" />
              <mxPoint x="40" y="670" />
              <mxPoint x="40" y="249" />
            </Array>
          </mxGeometry>
        </mxCell>
        <mxCell id="t4BZCT0nfX7v_ElxTXO8-49" value="" style="rounded=0;whiteSpace=wrap;html=1;fontFamily=Architects Daughter;fontSource=https%3A%2F%2Ffonts.googleapis.com%2Fcss%3Ffamily%3DArchitects%2BDaughter;" vertex="1" parent="1">
          <mxGeometry x="84" y="579" width="176" height="60" as="geometry" />
        </mxCell>
        <mxCell id="t4BZCT0nfX7v_ElxTXO8-50" value="" style="endArrow=none;html=1;rounded=0;fontFamily=Architects Daughter;fontSource=https%3A%2F%2Ffonts.googleapis.com%2Fcss%3Ffamily%3DArchitects%2BDaughter;" edge="1" parent="1">
          <mxGeometry width="50" height="50" relative="1" as="geometry">
            <mxPoint x="177.7" y="639" as="sourcePoint" />
            <mxPoint x="177.7" y="579" as="targetPoint" />
          </mxGeometry>
        </mxCell>
        <mxCell id="t4BZCT0nfX7v_ElxTXO8-51" value="&lt;b&gt;Album_Songs&lt;/b&gt;" style="text;html=1;align=center;verticalAlign=middle;resizable=0;points=[];autosize=1;strokeColor=none;fillColor=none;fontFamily=Architects Daughter;fontSource=https%3A%2F%2Ffonts.googleapis.com%2Fcss%3Ffamily%3DArchitects%2BDaughter;fontSize=18;" vertex="1" parent="1">
          <mxGeometry x="76" y="539" width="130" height="40" as="geometry" />
        </mxCell>
        <mxCell id="t4BZCT0nfX7v_ElxTXO8-52" value="&lt;font style=&quot;font-size: 17px;&quot;&gt;&lt;b&gt;Song_title&lt;/b&gt;&lt;/font&gt;" style="text;html=1;align=center;verticalAlign=middle;resizable=0;points=[];autosize=1;strokeColor=none;fillColor=none;fontStyle=4;fontFamily=Architects Daughter;fontSource=https%3A%2F%2Ffonts.googleapis.com%2Fcss%3Ffamily%3DArchitects%2BDaughter;" vertex="1" parent="1">
          <mxGeometry x="78" y="593" width="100" height="30" as="geometry" />
        </mxCell>
        <mxCell id="t4BZCT0nfX7v_ElxTXO8-53" value="&lt;font style=&quot;font-size: 17px;&quot;&gt;&lt;b&gt;Album_id&lt;/b&gt;&lt;/font&gt;" style="text;html=1;align=center;verticalAlign=middle;resizable=0;points=[];autosize=1;strokeColor=none;fillColor=none;fontFamily=Architects Daughter;fontSource=https%3A%2F%2Ffonts.googleapis.com%2Fcss%3Ffamily%3DArchitects%2BDaughter;" vertex="1" parent="1">
          <mxGeometry x="172" y="593" width="90" height="30" as="geometry" />
        </mxCell>
        <mxCell id="t4BZCT0nfX7v_ElxTXO8-54" value="" style="endArrow=none;dashed=1;html=1;dashPattern=1 3;strokeWidth=2;rounded=0;" edge="1" parent="1">
          <mxGeometry width="50" height="50" relative="1" as="geometry">
            <mxPoint x="96" y="623.33" as="sourcePoint" />
            <mxPoint x="162" y="623" as="targetPoint" />
          </mxGeometry>
        </mxCell>
        <mxCell id="t4BZCT0nfX7v_ElxTXO8-55" value="" style="endArrow=none;dashed=1;html=1;dashPattern=1 3;strokeWidth=2;rounded=0;" edge="1" parent="1">
          <mxGeometry width="50" height="50" relative="1" as="geometry">
            <mxPoint x="184" y="623.33" as="sourcePoint" />
            <mxPoint x="250" y="623" as="targetPoint" />
          </mxGeometry>
        </mxCell>
        <mxCell id="t4BZCT0nfX7v_ElxTXO8-69" style="edgeStyle=orthogonalEdgeStyle;rounded=0;orthogonalLoop=1;jettySize=auto;html=1;exitX=0.25;exitY=1;exitDx=0;exitDy=0;entryX=0;entryY=0.5;entryDx=0;entryDy=0;" edge="1" parent="1" source="t4BZCT0nfX7v_ElxTXO8-59" target="t4BZCT0nfX7v_ElxTXO8-49">
          <mxGeometry relative="1" as="geometry">
            <Array as="points">
              <mxPoint x="133" y="800" />
              <mxPoint x="50" y="800" />
              <mxPoint x="50" y="609" />
            </Array>
          </mxGeometry>
        </mxCell>
        <mxCell id="t4BZCT0nfX7v_ElxTXO8-70" style="edgeStyle=orthogonalEdgeStyle;rounded=0;orthogonalLoop=1;jettySize=auto;html=1;exitX=0.75;exitY=1;exitDx=0;exitDy=0;entryX=0;entryY=0.25;entryDx=0;entryDy=0;" edge="1" parent="1" source="t4BZCT0nfX7v_ElxTXO8-59" target="t4BZCT0nfX7v_ElxTXO8-1">
          <mxGeometry relative="1" as="geometry">
            <Array as="points">
              <mxPoint x="231" y="820" />
              <mxPoint x="20" y="820" />
              <mxPoint x="20" y="114" />
            </Array>
          </mxGeometry>
        </mxCell>
        <mxCell id="t4BZCT0nfX7v_ElxTXO8-59" value="" style="rounded=0;whiteSpace=wrap;html=1;fontFamily=Architects Daughter;fontSource=https%3A%2F%2Ffonts.googleapis.com%2Fcss%3Ffamily%3DArchitects%2BDaughter;" vertex="1" parent="1">
          <mxGeometry x="84" y="720" width="196" height="60" as="geometry" />
        </mxCell>
        <mxCell id="t4BZCT0nfX7v_ElxTXO8-60" value="" style="endArrow=none;html=1;rounded=0;fontFamily=Architects Daughter;fontSource=https%3A%2F%2Ffonts.googleapis.com%2Fcss%3Ffamily%3DArchitects%2BDaughter;" edge="1" parent="1">
          <mxGeometry width="50" height="50" relative="1" as="geometry">
            <mxPoint x="177.7" y="780" as="sourcePoint" />
            <mxPoint x="177.7" y="720" as="targetPoint" />
          </mxGeometry>
        </mxCell>
        <mxCell id="t4BZCT0nfX7v_ElxTXO8-61" value="&lt;font style=&quot;font-size: 17px;&quot;&gt;&lt;b&gt;Song_title&lt;/b&gt;&lt;/font&gt;" style="text;html=1;align=center;verticalAlign=middle;resizable=0;points=[];autosize=1;strokeColor=none;fillColor=none;fontStyle=0;fontFamily=Architects Daughter;fontSource=https%3A%2F%2Ffonts.googleapis.com%2Fcss%3Ffamily%3DArchitects%2BDaughter;" vertex="1" parent="1">
          <mxGeometry x="78" y="734" width="100" height="30" as="geometry" />
        </mxCell>
        <mxCell id="t4BZCT0nfX7v_ElxTXO8-62" value="&lt;b style=&quot;font-size: 17px;&quot;&gt;Musician_id&lt;/b&gt;" style="text;html=1;align=center;verticalAlign=middle;resizable=0;points=[];autosize=1;strokeColor=none;fillColor=none;fontFamily=Architects Daughter;fontSource=https%3A%2F%2Ffonts.googleapis.com%2Fcss%3Ffamily%3DArchitects%2BDaughter;" vertex="1" parent="1">
          <mxGeometry x="173" y="735" width="110" height="30" as="geometry" />
        </mxCell>
        <mxCell id="t4BZCT0nfX7v_ElxTXO8-63" value="" style="endArrow=none;dashed=1;html=1;dashPattern=1 3;strokeWidth=2;rounded=0;" edge="1" parent="1">
          <mxGeometry width="50" height="50" relative="1" as="geometry">
            <mxPoint x="96" y="764.33" as="sourcePoint" />
            <mxPoint x="162" y="764" as="targetPoint" />
          </mxGeometry>
        </mxCell>
        <mxCell id="t4BZCT0nfX7v_ElxTXO8-64" value="" style="endArrow=none;dashed=1;html=1;dashPattern=1 3;strokeWidth=2;rounded=0;entryX=0.942;entryY=0.969;entryDx=0;entryDy=0;entryPerimeter=0;" edge="1" parent="1" target="t4BZCT0nfX7v_ElxTXO8-62">
          <mxGeometry width="50" height="50" relative="1" as="geometry">
            <mxPoint x="184" y="764.33" as="sourcePoint" />
            <mxPoint x="250" y="764" as="targetPoint" />
          </mxGeometry>
        </mxCell>
        <mxCell id="t4BZCT0nfX7v_ElxTXO8-65" value="&lt;b&gt;Musician_Songs&lt;/b&gt;" style="text;html=1;align=center;verticalAlign=middle;resizable=0;points=[];autosize=1;strokeColor=none;fillColor=none;fontFamily=Architects Daughter;fontSource=https%3A%2F%2Ffonts.googleapis.com%2Fcss%3Ffamily%3DArchitects%2BDaughter;fontSize=18;" vertex="1" parent="1">
          <mxGeometry x="75" y="680" width="150" height="40" as="geometry" />
        </mxCell>
        <mxCell id="t4BZCT0nfX7v_ElxTXO8-68" value="" style="endArrow=none;html=1;rounded=0;exitX=0.949;exitY=0.833;exitDx=0;exitDy=0;exitPerimeter=0;" edge="1" parent="1" source="t4BZCT0nfX7v_ElxTXO8-59">
          <mxGeometry width="50" height="50" relative="1" as="geometry">
            <mxPoint x="230" y="770" as="sourcePoint" />
            <mxPoint x="90" y="770" as="targetPoint" />
          </mxGeometry>
        </mxCell>
        <mxCell id="t4BZCT0nfX7v_ElxTXO8-81" style="edgeStyle=orthogonalEdgeStyle;rounded=0;orthogonalLoop=1;jettySize=auto;html=1;exitX=0.25;exitY=1;exitDx=0;exitDy=0;entryX=0;entryY=0.5;entryDx=0;entryDy=0;" edge="1" parent="1" source="t4BZCT0nfX7v_ElxTXO8-71" target="t4BZCT0nfX7v_ElxTXO8-33">
          <mxGeometry relative="1" as="geometry">
            <Array as="points">
              <mxPoint x="153" y="950" />
              <mxPoint x="10" y="950" />
              <mxPoint x="10" y="379" />
            </Array>
          </mxGeometry>
        </mxCell>
        <mxCell id="t4BZCT0nfX7v_ElxTXO8-82" style="edgeStyle=orthogonalEdgeStyle;rounded=0;orthogonalLoop=1;jettySize=auto;html=1;exitX=0.75;exitY=1;exitDx=0;exitDy=0;entryX=0;entryY=0.75;entryDx=0;entryDy=0;" edge="1" parent="1" source="t4BZCT0nfX7v_ElxTXO8-71" target="t4BZCT0nfX7v_ElxTXO8-1">
          <mxGeometry relative="1" as="geometry">
            <Array as="points">
              <mxPoint x="291" y="960" />
              <mxPoint y="960" />
              <mxPoint y="144" />
            </Array>
          </mxGeometry>
        </mxCell>
        <mxCell id="t4BZCT0nfX7v_ElxTXO8-71" value="" style="rounded=0;whiteSpace=wrap;html=1;fontFamily=Architects Daughter;fontSource=https%3A%2F%2Ffonts.googleapis.com%2Fcss%3Ffamily%3DArchitects%2BDaughter;" vertex="1" parent="1">
          <mxGeometry x="84" y="870" width="276" height="60" as="geometry" />
        </mxCell>
        <mxCell id="t4BZCT0nfX7v_ElxTXO8-72" value="" style="endArrow=none;html=1;rounded=0;fontFamily=Architects Daughter;fontSource=https%3A%2F%2Ffonts.googleapis.com%2Fcss%3Ffamily%3DArchitects%2BDaughter;" edge="1" parent="1">
          <mxGeometry width="50" height="50" relative="1" as="geometry">
            <mxPoint x="238" y="930" as="sourcePoint" />
            <mxPoint x="238" y="870" as="targetPoint" />
          </mxGeometry>
        </mxCell>
        <mxCell id="t4BZCT0nfX7v_ElxTXO8-73" value="&lt;font style=&quot;font-size: 17px;&quot;&gt;&lt;b&gt;instrument_name&lt;/b&gt;&lt;/font&gt;" style="text;html=1;align=center;verticalAlign=middle;resizable=0;points=[];autosize=1;strokeColor=none;fillColor=none;fontStyle=0;fontFamily=Architects Daughter;fontSource=https%3A%2F%2Ffonts.googleapis.com%2Fcss%3Ffamily%3DArchitects%2BDaughter;" vertex="1" parent="1">
          <mxGeometry x="79" y="880" width="160" height="30" as="geometry" />
        </mxCell>
        <mxCell id="t4BZCT0nfX7v_ElxTXO8-74" value="&lt;b style=&quot;font-size: 17px;&quot;&gt;Musician_id&lt;/b&gt;" style="text;html=1;align=center;verticalAlign=middle;resizable=0;points=[];autosize=1;strokeColor=none;fillColor=none;fontFamily=Architects Daughter;fontSource=https%3A%2F%2Ffonts.googleapis.com%2Fcss%3Ffamily%3DArchitects%2BDaughter;" vertex="1" parent="1">
          <mxGeometry x="238" y="880" width="110" height="30" as="geometry" />
        </mxCell>
        <mxCell id="t4BZCT0nfX7v_ElxTXO8-75" value="" style="endArrow=none;dashed=1;html=1;dashPattern=1 3;strokeWidth=2;rounded=0;entryX=0.949;entryY=0.978;entryDx=0;entryDy=0;entryPerimeter=0;" edge="1" parent="1" target="t4BZCT0nfX7v_ElxTXO8-73">
          <mxGeometry width="50" height="50" relative="1" as="geometry">
            <mxPoint x="93" y="910.33" as="sourcePoint" />
            <mxPoint x="159" y="910" as="targetPoint" />
          </mxGeometry>
        </mxCell>
        <mxCell id="t4BZCT0nfX7v_ElxTXO8-76" value="" style="endArrow=none;dashed=1;html=1;dashPattern=1 3;strokeWidth=2;rounded=0;entryX=0.942;entryY=0.969;entryDx=0;entryDy=0;entryPerimeter=0;" edge="1" target="t4BZCT0nfX7v_ElxTXO8-74" parent="1">
          <mxGeometry width="50" height="50" relative="1" as="geometry">
            <mxPoint x="249" y="909.33" as="sourcePoint" />
            <mxPoint x="315" y="909" as="targetPoint" />
          </mxGeometry>
        </mxCell>
        <mxCell id="t4BZCT0nfX7v_ElxTXO8-77" value="&lt;b&gt;Musician_instruments&lt;/b&gt;" style="text;html=1;align=center;verticalAlign=middle;resizable=0;points=[];autosize=1;strokeColor=none;fillColor=none;fontFamily=Architects Daughter;fontSource=https%3A%2F%2Ffonts.googleapis.com%2Fcss%3Ffamily%3DArchitects%2BDaughter;fontSize=18;" vertex="1" parent="1">
          <mxGeometry x="78" y="830" width="200" height="40" as="geometry" />
        </mxCell>
        <mxCell id="t4BZCT0nfX7v_ElxTXO8-78" value="" style="endArrow=none;html=1;rounded=0;exitX=0.949;exitY=0.833;exitDx=0;exitDy=0;exitPerimeter=0;" edge="1" source="t4BZCT0nfX7v_ElxTXO8-71" parent="1">
          <mxGeometry width="50" height="50" relative="1" as="geometry">
            <mxPoint x="230" y="920" as="sourcePoint" />
            <mxPoint x="90" y="920" as="targetPoint" />
          </mxGeometry>
        </mxCell>
      </root>
    </mxGraphModel>
  </diagram>
</mxfile>
